<svg xmlns="http://www.w3.org/2000/svg" viewBox="0 0 800.9 800.25"><defs><style>.cls-1{fill:#d5d3c2;}</style></defs><g id="Layer_2" data-name="Layer 2"><g id="Layer_1-2" data-name="Layer 1"><path class="cls-1" d="M293.53,227.19c2.9-4.15,4.86-7.89,7.67-10.82,29.35-30.49,58.56-61.13,88.36-91.19,25.8-26,51.77-52,78.65-76.86C498.12,20.6,534.39,5.49,574.73,1.22,695-11.54,777.15,78.44,795.35,157.11,806.49,205.33,801,252.33,777.79,297c-10.21,19.64-24.59,35.58-39.81,51q-68.19,69-136.9,137.41c-32,31.72-71.57,48.49-116,52.74-59.1,5.66-110.83-12-154.45-52.56-8.52-7.91-15.78-16.92-17.81-28.85C309.44,436.8,317,421.24,333,409.88,348.2,399,364.55,398,380.82,407.67c6.68,4,12.72,9.1,18.95,13.83C435.53,448.71,474,453.2,514.05,433c11.58-5.84,21.49-15.72,30.89-25,45.08-44.71,89.51-90.07,134.6-134.77,21-20.76,26.27-46,26.55-74.3.55-54.87-55.65-101.6-98-104.61-28.34-2-54.76,3.54-76,23.56-28,26.4-55.24,53.62-82.74,80.55-11.55,11.31-23,22.68-34.35,34.23-2.51,2.57-4.75,2.86-8,2-27.12-7.57-54.66-12.11-82.93-10.48C314.35,224.66,304.62,226,293.53,227.19Z"/><path class="cls-1" d="M507,574.78c-3,3.79-5.21,7.1-7.93,9.94-34.94,36.42-69.63,73.1-105.09,109-21.4,21.69-43.24,43.1-66.3,63-29,25-63.56,38.68-101.72,42.3-30.86,2.92-61.53,1-90.42-11.12-72-30.24-119.38-82-132.52-160.31C-7.26,566.25,8.55,510.8,51.3,465c51.84-55.57,106.07-108.82,161.83-160.47,18.22-16.86,40.7-26.3,63.79-34.32,56.19-19.5,139-7.71,191.83,43.06,9.11,8.75,17.56,18,19.79,31,3.31,19.44-4.08,34.76-19.52,46.1-14.87,10.93-31.11,12.57-47.35,3.24-7.75-4.45-14.76-10.25-21.77-15.86-38.88-31.08-94.33-29.82-131.32,3.39-11.65,10.46-23,21.31-34,32.4-36.68,36.84-73,74.08-109.81,110.76C105.18,543.8,95,567,94.21,594.37c-.91,30.27,11.22,55.31,31.8,76.77,14.91,15.55,31.61,28.38,53.43,32.21,25.23,4.42,50.22,4.46,73.48-8.39a70.28,70.28,0,0,0,14.7-11q57.58-55.86,114.74-112.17c5.31-5.25,9.6-7.1,17.16-4.77,32.47,10,65.73,12,99.39,7.69,1.82-.24,3.65-.31,5.48-.4A17.77,17.77,0,0,1,507,574.78Z"/></g></g></svg>